<?xml version='1.0' encoding='UTF-8'?>
<svg xmlns="http://www.w3.org/2000/svg" xmlns:xlink="http://www.w3.org/1999/xlink" version="1.1" width="512" height="512" viewBox="0 0 512 512" role="img">
  <title>Tajweed Scholars favicon</title>
  <desc>High contrast Tajweed Scholars browser icon</desc>
  <rect width="512" height="512" rx="84" fill="#277F68"/>
  <defs><clipPath clipPathUnits="userSpaceOnUse" id="clipPath2">
      <path d="M 0,600.945 H 876.249 V 0 H 0 Z" transform="translate(-433.85871,-338.48281)" id="path2"/>
    </clipPath>
    <clipPath clipPathUnits="userSpaceOnUse" id="clipPath4">
      <path d="M 0,600.945 H 876.249 V 0 H 0 Z" transform="translate(-454.45541,-343.81531)" id="path4"/>
    </clipPath>
    <clipPath clipPathUnits="userSpaceOnUse" id="clipPath6">
      <path d="M 0,600.945 H 876.249 V 0 H 0 Z" transform="translate(-516.13852,-246.1234)" id="path6"/>
    </clipPath>
    <clipPath clipPathUnits="userSpaceOnUse" id="clipPath8">
      <path d="M 0,600.945 H 876.249 V 0 H 0 Z" transform="translate(-438.57581,-317.96751)" id="path8"/>
    </clipPath>
    <clipPath clipPathUnits="userSpaceOnUse" id="clipPath10">
      <path d="M 0,600.945 H 876.249 V 0 H 0 Z" transform="translate(-421.18331,-262.49821)" id="path10"/>
    </clipPath>
    <clipPath clipPathUnits="userSpaceOnUse" id="clipPath12">
      <path d="M 0,600.945 H 876.249 V 0 H 0 Z" transform="translate(-507.59011,-268.5145)" id="path12"/>
    </clipPath>
    <clipPath clipPathUnits="userSpaceOnUse" id="clipPath14">
      <path d="M 0,600.945 H 876.249 V 0 H 0 Z" transform="translate(-466.49551,-292.84041)" id="path14"/>
    </clipPath>
    <clipPath clipPathUnits="userSpaceOnUse" id="clipPath16">
      <path d="M 0,600.945 H 876.249 V 0 H 0 Z" transform="translate(-513.03982,-392.55741)" id="path16"/>
    </clipPath>
    <clipPath clipPathUnits="userSpaceOnUse" id="clipPath18">
      <path d="M 0,600.945 H 876.249 V 0 H 0 Z" transform="translate(-373.47471,-333.41481)" id="path18"/>
    </clipPath>
    <clipPath clipPathUnits="userSpaceOnUse" id="clipPath20">
      <path d="M 0,600.945 H 876.249 V 0 H 0 Z" transform="translate(-389.56191,-239.1487)" id="path20"/>
    </clipPath>
    <clipPath clipPathUnits="userSpaceOnUse" id="clipPath22">
      <path d="M 0,600.945 H 876.249 V 0 H 0 Z" transform="translate(-416.73981,-314.21621)" id="path22"/>
    </clipPath>
    <clipPath clipPathUnits="userSpaceOnUse" id="clipPath24">
      <path d="M 0,600.945 H 876.249 V 0 H 0 Z" transform="translate(-517.18271,-427.34441)" id="path24"/>
    </clipPath>
    <clipPath clipPathUnits="userSpaceOnUse" id="clipPath26">
      <path d="M 0,600.945 H 876.249 V 0 H 0 Z" transform="translate(-476.85541,-243.47431)" id="path26"/>
    </clipPath>
    <clipPath clipPathUnits="userSpaceOnUse" id="clipPath28">
      <path d="M 0,600.945 H 876.249 V 0 H 0 Z" transform="translate(-480.37571,-360.53301)" id="path28"/>
    </clipPath>
    </defs>
  <g id="favicon-mark" transform="matrix(1.215849598,0,0,1.215849598,-438.859578445,-180.088167243)"><path id="path1" d="m 0,0 c -0.682,2.17 -1.387,4.413 -1.616,6.542 v 0 c -0.169,1.563 -0.038,5.504 0.088,9.316 0.104,3.134 0.211,6.375 0.147,8.257 -0.051,1.504 -0.191,1.887 -0.464,2.135 -0.515,0.467 -1.624,0.456 -5.446,0.168 -0.709,-0.053 -1.417,-0.106 -2.03,-0.143 -0.624,-0.007 -0.934,0.019 -1.083,0.046 -0.102,0.417 -10e-4,1.636 0.081,2.631 0.266,3.22 0.63,7.631 -2.079,9.41 -1.199,0.787 -3.19,1.129 -6.24,1.074 -1.762,0.035 -3.607,-0.096 -5.234,-0.211 -0.776,-0.055 -1.486,-0.105 -2.008,-0.13 -0.11,0.008 -0.188,0.018 -0.241,0.028 -0.222,0.724 -0.02,3.568 0.143,5.875 0.371,5.217 0.831,11.709 -0.95,14.256 -1.414,2.02 -5.528,2.872 -9.741,3.488 -2.221,0.402 -4.613,0.72 -6.926,1.027 -1.499,0.2 -2.941,0.392 -4.183,0.585 -0.691,0.157 -1.255,0.318 -1.711,0.488 0.011,0.241 0.141,0.805 0.733,2.1 1.197,2.095 2.083,4.039 2.617,5.74 1.273,3.341 1.37,5.712 0.304,7.46 -0.953,1.563 -2.841,2.512 -5.612,2.823 l -0.498,0.044 c -0.677,0.09 -1.425,0.138 -2.221,0.145 l -0.361,0.002 -0.37,-0.002 c -0.797,-0.007 -1.544,-0.055 -2.199,-0.142 l -0.521,-0.048 c -2.77,-0.31 -4.658,-1.26 -5.611,-2.822 -1.066,-1.748 -0.969,-4.119 0.291,-7.421 0.547,-1.74 1.432,-3.684 2.602,-5.724 0.624,-1.362 0.753,-1.931 0.77,-2.151 -0.457,-0.172 -1.016,-0.333 -1.673,-0.483 -1.289,-0.202 -2.731,-0.394 -4.229,-0.594 -2.314,-0.307 -4.706,-0.625 -6.904,-1.023 -4.235,-0.62 -8.349,-1.472 -9.763,-3.492 -1.782,-2.547 -1.321,-9.038 -0.951,-14.255 0.167,-2.363 0.375,-5.289 0.169,-5.874 -0.043,-0.009 -0.106,-0.02 -0.191,-0.028 -0.598,0.023 -1.308,0.073 -2.085,0.128 -1.626,0.115 -3.47,0.247 -5.209,0.211 -3.08,0.056 -5.066,-0.287 -6.264,-1.074 -2.709,-1.779 -2.345,-6.19 -2.079,-9.41 0.082,-0.995 0.183,-2.214 0.08,-2.631 -0.147,-0.027 -0.45,-0.054 -1.081,-0.046 l -0.665,0.01 c -2.336,0.042 -5.539,0.099 -7.112,-1.747 l -0.156,-0.183 -0.008,-0.24 c -0.064,-1.882 0.043,-5.123 0.147,-8.256 0.126,-3.812 0.257,-7.754 0.089,-9.317 -0.229,-2.128 -0.935,-4.371 -1.617,-6.541 -0.783,-2.494 -1.524,-4.85 -1.625,-7.102 -0.014,-0.299 -0.016,-0.595 -0.006,-0.889 0.011,-0.273 0.04,-0.551 0.071,-0.831 0.217,-1.972 0.902,-4.012 1.628,-6.173 1.174,-3.497 2.388,-7.112 1.588,-10.559 l -0.158,-0.683 0.685,-0.145 c 0.943,-0.199 1.778,-0.299 2.515,-0.299 1.051,0 1.899,0.203 2.564,0.611 2.913,1.787 1.43,6.573 -0.14,11.639 -0.895,2.887 -1.821,5.873 -1.79,8.034 0.03,2.175 0.827,4.505 1.67,6.972 0.668,1.955 1.359,3.976 1.655,5.963 0.244,1.634 0.176,5.152 0.11,8.555 -0.048,2.459 -0.107,5.468 0.028,6.365 0.345,0.039 1.036,0.021 1.612,0.005 l 1.482,-0.092 c 3.792,-0.288 4.892,-0.298 5.402,0.17 0.332,0.304 0.44,0.838 0.429,2.115 -0.01,1.08 -0.117,2.56 -0.221,3.992 -0.12,1.664 -0.297,4.105 -0.179,4.884 0.157,0.012 0.438,0.016 0.947,-0.011 0.303,-0.016 0.643,-0.04 1.012,-0.065 1.027,-0.07 2.297,-0.147 3.609,-0.147 3.09,-0.161 6.844,-0.072 8.455,2.076 0.486,0.648 0.821,1.513 1.025,2.641 1.261,3.241 0.924,9.572 0.676,14.204 -0.06,1.126 -0.115,2.16 -0.141,3.03 1.946,2.087 9.974,3.45 21.62,3.659 11.67,-0.209 19.699,-1.572 21.645,-3.659 -0.026,-0.871 -0.082,-1.905 -0.142,-3.033 -0.247,-4.63 -0.584,-10.961 0.678,-14.201 0.203,-1.128 0.538,-1.993 1.024,-2.641 1.611,-2.148 5.362,-2.24 8.414,-2.076 1.334,-0.01 2.622,0.077 3.65,0.147 0.277,0.019 0.539,0.037 0.78,0.052 0.016,-0.395 -0.04,-1.135 -0.088,-1.754 -0.178,-2.337 -0.421,-5.529 0.867,-7.354 0.005,-1.094 0.12,-1.576 0.428,-1.859 0.511,-0.469 1.611,-0.457 5.404,-0.17 l 1.11,0.083 c 1.677,0.119 2.75,0.147 3.202,0.083 0.128,-0.932 0.013,-4.105 -0.082,-6.696 -0.123,-3.401 -0.251,-6.918 -0.045,-8.468 l 7.935,-20.588 0.573,1.936 c 0.407,1.376 0.647,2.475 0.756,3.459 0.03,0.278 0.059,0.556 0.07,0.83 0.01,0.292 0.008,0.588 -0.005,0.887 C 1.524,-4.85 0.784,-2.494 0,0" style="fill:#FFFFFF;fill-opacity:1;fill-rule:nonzero;stroke:none" transform="matrix(1.3333333,0,0,-1.3333333,574.69875,346.17008)" clip-path="url(#clipPath2)"/>
    <path id="path3" d="m 0,0 c -0.791,1.814 -1.611,3.69 -1.79,5.685 -0.293,3.234 -0.184,6.647 -0.069,10.26 0.244,7.64 0.496,15.539 -3.259,21.882 -0.737,1.246 -1.87,2.178 -2.965,3.079 -1.362,1.122 -2.649,2.18 -3.232,3.785 -0.468,1.288 -0.563,3.113 -0.662,5.045 -0.144,2.776 -0.293,5.647 -1.614,7.427 -1.479,1.994 -5.163,1.638 -8.725,1.297 -2.027,-0.194 -4.319,-0.414 -5.036,0.058 -0.141,0.272 -0.433,1.202 -0.717,2.104 -0.996,3.17 -2.664,8.475 -5.317,11.44 -2.499,2.791 -6.556,4.589 -9.241,5.779 -0.881,0.39 -1.88,0.832 -2.046,0.987 -0.469,0.637 -0.681,2.071 -0.905,3.589 -0.481,3.247 -1.078,7.285 -4.543,9.099 l -24.126,17.389 c -0.462,0.333 -1.05,0.452 -1.616,0.326 -0.545,-0.123 -1.009,-0.465 -1.271,-0.939 -2.614,-4.73 -7.502,-7.247 -12.229,-9.681 -3.468,-1.785 -7.053,-3.631 -9.592,-6.326 -2.527,-2.683 -3.687,-6.303 -4.619,-9.211 -0.584,-1.822 -1.088,-3.395 -1.738,-4.122 -0.41,-0.458 -1.583,-0.925 -2.825,-1.421 -2.001,-0.798 -4.49,-1.791 -6.419,-3.601 -2.845,-2.668 -4.647,-7.512 -5.963,-11.049 -0.568,-1.527 -1.275,-3.427 -1.623,-3.693 -1.183,-0.773 -3.368,-0.738 -5.488,-0.706 -3.015,0.048 -6.13,0.095 -7.659,-1.963 -1.429,-1.922 -1.173,-4.727 -0.925,-7.44 0.156,-1.704 0.303,-3.314 0.011,-4.513 -0.127,-0.522 -1.401,-1.173 -2.525,-1.746 -1.483,-0.757 -3.163,-1.615 -4.213,-2.928 -3.755,-4.698 -3.479,-11.998 -3.213,-19.058 0.131,-3.469 0.255,-6.745 -0.106,-9.559 -0.355,-2.768 -1.699,-6.095 -2.999,-9.312 -1.444,-3.575 -2.808,-6.952 -2.645,-9.251 0.141,-1.988 1.219,-4.49 2.467,-7.387 1.304,-3.027 2.782,-6.458 3.177,-9.534 l 0.272,-2.117 4.723,8.739 c 0.076,-0.378 0.16,-0.754 0.267,-1.121 0.85,-2.907 2.682,-5.573 5.6,-8.15 l 0.157,-0.139 0.208,-0.028 c 0.633,-0.084 1.162,-0.127 1.606,-0.127 0.944,0 1.503,0.196 1.848,0.614 0.558,0.674 0.266,1.549 -0.072,2.562 -0.161,0.485 -0.344,1.034 -0.456,1.614 -0.505,2.619 -0.864,4.745 -1.097,6.498 -0.538,4.032 -0.412,6.144 0.016,8.588 l 0.292,0.696 c 0.852,2.012 1.817,4.292 1.972,6.803 0.195,3.139 -0.023,6.857 -0.233,10.451 -0.278,4.751 -0.566,9.664 0.096,13.232 0.037,0.2 0.264,0.476 1.753,0.553 0.918,-0.02 1.997,-0.024 3.023,0.113 1.393,0.113 3.123,0.419 4.148,1.782 1.471,1.957 1.154,5.811 0.923,8.625 -0.073,0.896 -0.162,1.983 -0.114,2.431 0.529,0.077 1.956,-0.028 3.126,-0.114 0.718,-0.052 1.499,-0.11 2.289,-0.151 3.524,-0.268 6.132,-0.296 7.404,0.441 0.252,0.146 0.478,0.345 0.694,0.608 1.487,1.823 1.618,6.275 1.745,10.58 0.073,2.497 0.143,4.855 0.496,6.037 0.489,1.637 1.601,2.752 3.497,3.51 1.296,0.518 2.921,0.861 5.05,1.077 0.911,0.007 1.91,-0.039 2.875,-0.083 3.41,-0.155 6.933,-0.315 8.622,1.614 0.239,0.083 0.478,0.168 0.699,0.268 l 0.803,0.367 -0.552,0.689 c -0.081,0.102 -0.156,0.205 -0.231,0.309 l -0.13,0.179 c -2.686,3.617 -3.533,7.92 -2.325,11.803 0.487,1.568 1.263,2.972 2.307,4.176 1.474,1.032 3.738,2.046 6.92,3.098 0.946,0.314 1.923,0.527 2.907,0.635 0.984,-0.108 1.961,-0.321 2.907,-0.635 3.182,-1.053 5.447,-2.067 6.919,-3.098 1.019,-1.173 1.782,-2.538 2.272,-4.06 -0.076,-1.208 -0.538,-2.616 -1.071,-4.239 -0.455,-1.383 -0.97,-2.952 -1.361,-4.739 -0.279,-1.27 -0.3,-2.33 -0.064,-3.225 -0.05,-0.069 -0.101,-0.137 -0.155,-0.205 l -0.549,-0.688 0.801,-0.366 c 0.221,-0.101 0.459,-0.186 0.699,-0.269 1.688,-1.929 5.211,-1.769 8.622,-1.614 0.964,0.044 1.965,0.087 2.811,0.086 2.192,-0.218 3.817,-0.562 5.058,-1.054 3.96,-2.01 3.683,-6.559 3.415,-10.959 -0.193,-3.188 -0.377,-6.198 1.073,-8.154 0.336,-0.454 0.808,-0.842 1.405,-1.156 0.186,-0.207 0.381,-0.368 0.594,-0.492 1.274,-0.738 3.881,-0.709 7.389,-0.442 0.806,0.042 1.586,0.1 2.305,0.152 1.17,0.085 2.598,0.19 3.125,0.114 0.049,-0.448 -0.04,-1.535 -0.114,-2.43 -0.231,-2.815 -0.547,-6.669 0.924,-8.626 1.024,-1.363 2.755,-1.669 4.114,-1.779 1.06,-0.139 2.141,-0.136 3.006,-0.115 1.539,-0.078 1.767,-0.354 1.804,-0.554 0.662,-3.568 0.374,-8.481 0.096,-13.232 -0.21,-3.594 -0.428,-7.312 -0.234,-10.451 0.156,-2.511 1.121,-4.791 1.972,-6.803 l 0.293,-0.696 c 0.101,-0.564 0.187,-0.932 0.253,-1.212 0.177,-0.76 0.177,-0.76 -0.167,-3.334 l -0.082,-0.616 0.655,-4.626 1.619,-1.747 c 0.101,0.524 1.8,2.414 2.439,3.126 0.741,0.824 0.908,1.019 0.992,1.219 0.023,0.055 2.207,5.499 1.373,7.506 l -0.163,0.62 c -0.592,2.237 -1.204,4.55 -1.366,6.815 -0.155,2.173 -0.054,5.435 0.054,8.888 0.218,6.95 0.464,14.828 -1.227,17.905 -0.783,1.426 -2.087,2.422 -3.944,3.03 -1.109,0.448 -2.392,0.71 -3.853,0.796 -0.656,0.107 -0.844,0.182 -0.862,0.183 -0.401,0.441 -0.276,2.118 -0.166,3.598 0.219,2.959 0.493,6.642 -2.066,8.332 -0.03,0.02 -0.062,0.039 -0.095,0.058 -0.07,0.315 -0.179,0.527 -0.341,0.679 -0.378,0.356 -1.114,0.488 -4.414,0.335 -1.839,0.051 -3.786,-0.086 -5.505,-0.208 -1.264,-0.089 -2.811,-0.2 -3.343,-0.113 -0.101,0.416 -0.17,1.511 -0.232,2.49 -0.385,6.12 -1.283,20.421 -14.42,20.421 -0.049,0 -0.099,0 -0.149,0 -1.137,0.016 -2.343,-0.079 -3.634,-0.288 2.745,4.677 1.299,10.418 -4.044,15.663 -3.32,3.584 -8.059,6.304 -13.003,7.461 -0.701,0.164 -1.482,0.227 -2.338,0.191 -0.896,0.034 -1.701,-0.03 -2.392,-0.191 -4.944,-1.157 -9.684,-3.877 -12.98,-7.438 -5.364,-5.266 -6.812,-11.008 -4.068,-15.686 -1.29,0.209 -2.503,0.301 -3.617,0.288 -0.05,0 -0.099,0 -0.149,0 -13.151,0 -14.052,-14.302 -14.436,-20.422 -0.062,-0.978 -0.131,-2.073 -0.232,-2.489 -0.532,-0.087 -2.078,0.024 -3.343,0.113 -1.719,0.122 -3.671,0.261 -5.505,0.208 -1.978,-0.055 -3.433,-0.336 -4.448,-0.86 l -0.092,-0.044 c -0.11,-0.052 -0.218,-0.107 -0.309,-0.167 -2.56,-1.691 -2.287,-5.374 -2.067,-8.333 0.11,-1.48 0.235,-3.157 -0.13,-3.565 -0.054,-0.035 -0.243,-0.109 -0.83,-0.209 -1.529,-0.093 -2.812,-0.355 -3.879,-0.787 -1.899,-0.624 -3.203,-1.62 -3.986,-3.046 -1.691,-3.077 -1.445,-10.954 -1.228,-17.904 0.108,-3.453 0.21,-6.715 0.055,-8.889 -0.162,-2.264 -0.773,-4.575 -1.365,-6.81 l -0.162,-0.617 c -0.609,-1.309 -1.203,-2.696 -1.282,-4.042 -0.023,-0.389 -0.002,-1.082 0.065,-2.118 -0.032,-0.37 -0.041,-0.726 -0.051,-1.083 -0.389,0.923 -0.888,1.805 -1.381,2.669 -0.852,1.491 -1.656,2.899 -1.763,4.33 -0.163,2.191 0.826,3.99 1.874,5.894 0.849,1.543 1.727,3.139 1.938,4.959 0.362,3.115 0.197,6.901 0.023,10.909 -0.331,7.638 -0.707,16.295 2.889,20.794 0.864,1.082 2.394,1.864 3.744,2.554 1.584,0.809 2.952,1.507 3.247,2.647 0.385,1.489 0.167,4.282 -0.042,6.983 -0.12,1.535 -0.28,3.595 -0.161,4.242 0.537,0.088 2.076,-0.026 3.335,-0.118 3.612,-0.265 8.109,-0.594 10.343,0.873 1.416,0.931 2.075,3.743 2.839,6.998 0.613,2.616 1.248,5.321 2.273,6.968 1.965,3.157 5.701,4.858 8.703,6.225 2.279,1.038 4.078,1.857 4.845,3.088 0.807,1.294 0.999,2.841 1.201,4.479 0.233,1.878 0.474,3.821 1.627,5.735 2.08,3.448 19.931,13.983 23.373,13.112 1.417,-0.439 17.745,-11.581 18.684,-13.112 1.153,-1.914 1.394,-3.858 1.627,-5.739 0.203,-1.639 0.395,-3.186 1.202,-4.476 0.759,-1.213 2.599,-2.074 4.929,-3.165 3.34,-1.562 7.497,-3.508 9.477,-7.126 0.929,-1.699 1.378,-4.149 1.812,-6.517 0.545,-2.971 1.015,-5.535 2.417,-6.482 2.147,-1.45 6.668,-1.123 10.299,-0.861 1.286,0.093 2.857,0.206 3.402,0.117 0.116,-0.648 -0.04,-2.693 -0.156,-4.219 -0.207,-2.705 -0.421,-5.501 -0.038,-6.996 0.276,-1.075 1.537,-1.736 3.133,-2.574 2.592,-1.359 5.818,-3.051 6.617,-6.998 0.777,-3.838 0.519,-8.483 0.246,-13.4 -0.227,-4.085 -0.461,-8.309 -0.046,-12.054 0.288,-2.605 1.304,-5.317 2.287,-7.94 0.929,-2.476 1.888,-5.037 2.263,-7.544 0.103,-0.691 0.566,-1.256 1.239,-1.511 0.677,-0.257 1.439,-0.132 1.987,0.328 C 3.22,-7.379 1.583,-3.628 0,0" style="fill:#FFFFFF;fill-opacity:1;fill-rule:nonzero;stroke:none" transform="matrix(1.3333333,0,0,-1.3333333,602.16101,339.06008)" clip-path="url(#clipPath4)"/>
    <path id="path5" d="m 0,0 c -0.326,0.163 -0.938,0.001 -1.836,-0.486 -4.483,-2.677 -9.904,-4.016 -16.264,-4.016 -1.63,0 -3.362,0.467 -5.197,1.4 -1.835,0.932 -2.753,1.885 -2.753,2.858 0,2.191 2.406,4.949 7.216,8.274 5.381,3.973 8.072,7.947 8.072,11.922 0,1.621 -2.527,2.431 -7.581,2.431 -3.507,0 -5.831,-0.324 -6.973,-0.971 -1.711,-0.813 -3.138,-2.719 -4.28,-5.718 -0.326,-0.487 -0.326,-0.893 0,-1.219 0.327,-0.161 0.735,0.002 1.225,0.489 1.385,0.973 3.831,1.46 7.335,1.46 1.795,0 3.711,-0.244 5.748,-0.73 -5.379,-4.299 -8.314,-6.691 -8.803,-7.178 -3.343,-3.649 -5.014,-7.583 -5.014,-11.802 0,-4.46 3.505,-6.69 10.516,-6.69 7.175,0 13.208,2.839 18.101,8.516 C 0.326,-0.649 0.489,-0.163 0,0" style="fill:#FFFFFF;fill-opacity:1;fill-rule:nonzero;stroke:none" transform="matrix(1.3333333,0,0,-1.3333333,684.40515,469.31595)" clip-path="url(#clipPath6)"/>
    <path id="path7" d="m 0,0 c -0.003,0.005 -0.005,0.01 -0.007,0.015 -0.675,1.254 -1.284,2.276 -1.835,3.093 -1.03,1.524 -1.849,2.3 -2.451,2.3 -0.337,0 -0.841,-1.694 -1.513,-5.08 -0.672,-3.385 -1.009,-5.454 -1.009,-6.207 0,0.199 0.753,-0.766 2.235,-2.857 0.385,-0.544 0.808,-1.146 1.294,-1.845 2.354,-3.385 3.532,-6.039 3.532,-7.961 0,-0.92 -1.807,-2.3 -5.422,-4.14 -3.949,-2.007 -7.395,-3.01 -10.336,-3.01 -11.765,0 -19.076,5.392 -21.933,16.176 -1.765,8.778 -2.984,15.382 -3.655,19.813 -3.53,16.72 -10.715,32.687 -21.556,47.9 -1.344,1.84 -2.226,2.761 -2.646,2.761 -0.673,0 -1.01,-4.389 -1.01,-13.167 0,-0.669 0.799,-2.551 2.396,-5.645 5.043,-9.947 9.58,-20.312 13.613,-31.096 3.614,-9.947 5.421,-16.301 5.421,-19.061 0,-3.176 -7.186,-10.364 -21.556,-21.566 -15.715,-12.29 -28.362,-18.434 -37.941,-18.434 -4.959,0 -8.404,0.752 -10.337,2.257 -2.184,1.755 -3.276,5.099 -3.276,10.031 0,3.512 0.756,7.294 2.269,11.348 1.511,4.055 2.267,6.166 2.267,6.333 0,0.334 -0.21,0.501 -0.63,0.501 -1.344,0 -2.94,-2.675 -4.789,-8.025 -2.186,-6.186 -3.278,-12.748 -3.278,-19.687 0,-4.263 1.26,-7.857 3.782,-10.783 3.025,-3.678 7.479,-5.516 13.362,-5.516 7.899,0 18.698,4.806 32.396,14.419 13.025,9.196 21.722,17.555 26.092,25.078 1.261,2.174 2.06,5.81 2.395,10.909 4.034,-18.055 12.564,-27.083 25.588,-27.083 v 0 0 h 0.001 v 0 c 7.983,0 13.992,2.758 18.026,8.274 2.319,3.286 3.654,7.521 4.034,12.678 0.074,1.01 0.125,2.042 0.125,3.123 C 3.648,-9.228 2.432,-4.51 0,0" style="fill:#FFFFFF;fill-opacity:1;fill-rule:nonzero;stroke:none" transform="matrix(1.3333333,0,0,-1.3333333,580.98821,373.52381)" clip-path="url(#clipPath8)"/>
    <path id="path9" d="M 0,0 -12.856,7.524 -19.16,-3.762 -6.051,-11.41 -0.756,-2.006 12.102,-9.53 18.404,1.757 5.295,9.404 Z" style="fill:#FFFFFF;fill-opacity:1;fill-rule:nonzero;stroke:none" transform="matrix(1.3333333,0,0,-1.3333333,557.79821,447.48288)" clip-path="url(#clipPath10)"/>
    <path id="path11" d="M 0,0 13.109,-7.648 19.413,3.636 6.304,11.287 Z" style="fill:#FFFFFF;fill-opacity:1;fill-rule:nonzero;stroke:none" transform="matrix(1.3333333,0,0,-1.3333333,673.00728,439.46115)" clip-path="url(#clipPath12)"/>
    <path id="path13" d="m 0,0 c -2.941,3.595 -5.966,5.393 -9.074,5.393 -0.673,0 -1.514,-0.397 -2.522,-1.192 -1.009,-0.794 -1.513,-1.525 -1.513,-2.193 0,-1.672 1.975,-2.509 5.925,-2.509 2.941,0 5.336,0.167 7.184,0.501 M 93.154,26.209 C 91.39,22.28 89.584,18.768 87.736,15.674 87.314,14.923 86.893,14.547 86.473,14.547 81.264,14.881 78.297,14.824 76.013,14.421 L 73.238,13.92 C 66.18,12.582 56.222,9.321 43.364,4.139 29.59,-1.499 19.425,-5.536 12.835,-7.986 12.596,-18.085 9.877,-26.21 4.665,-32.35 1.724,-35.778 -7.478,-42.048 -22.94,-51.161 c -16.219,-9.613 -28.362,-15.59 -36.431,-17.931 -0.167,-0.167 -11.007,-1.965 -32.52,-5.392 -8.823,-1.588 -13.992,-2.381 -15.504,-2.381 -0.673,0 -1.01,0.083 -1.01,0.249 0,0.753 4.916,2.927 14.749,6.52 17.312,6.272 31.052,11.832 41.219,16.68 14.622,6.436 28.572,13.791 41.85,22.068 12.774,7.858 19.16,12.832 19.16,14.923 0,2.006 -0.462,4.305 -1.386,6.895 -4.958,-2.257 -9.916,-3.385 -14.875,-3.385 -8.992,0 -13.489,3.344 -13.489,10.031 0,4.265 1.471,8.529 4.412,12.792 3.279,5.014 6.977,7.522 11.093,7.522 3.615,0 7.732,-2.676 12.353,-8.026 1.266,-1.185 2.5,-3.229 3.702,-6.124 9.579,3.37 23.089,7.96 40.545,13.774 -8.153,1.672 -17.835,3.97 -29.244,5.77 L -6.05,24.578 c -0.755,0.084 -1.133,0.544 -1.133,1.379 0,0.753 0.756,2.425 2.269,5.015 1.848,3.01 2.9,4.328 4.749,5.665 0.576,0.438 1.483,0.924 2.596,1.351 1.403,0.675 3.243,1.51 5.54,2.514 14.286,6.186 24.749,16.384 31.389,30.596 4.369,9.028 8.613,13.541 12.729,13.541 1.513,0 3.068,-1.964 4.665,-5.893 1.344,-3.428 2.017,-6.605 2.017,-9.53 0,-3.092 -0.337,-6.06 -1.01,-8.904 -0.84,-3.26 -1.89,-4.89 -3.149,-4.89 -0.673,0 -0.926,0.753 -0.757,2.258 v 4.889 C 53.351,68.923 51.628,72.1 48.687,72.1 46.501,72.1 44.611,70.971 43.015,68.715 39.57,62.779 36.04,56.801 32.426,50.782 28.997,45.202 24.988,40.663 20.405,37.153 42.344,30.198 63.571,26.71 84.08,26.71 c 2.437,0 4.874,0.041 7.311,0.125 1.175,0.084 1.763,-0.125 1.763,-0.626" style="fill:#FFFFFF;fill-opacity:1;fill-rule:nonzero;stroke:none" transform="matrix(1.3333333,0,0,-1.3333333,618.21448,407.02661)" clip-path="url(#clipPath14)"/>
    <path id="path15" d="M 0,0 12.856,-7.522 19.16,3.762 6.051,11.413 0.756,2.008 -12.102,9.53 -18.404,-1.754 -5.295,-9.404 Z" style="fill:#FFFFFF;fill-opacity:1;fill-rule:nonzero;stroke:none" transform="matrix(1.3333333,0,0,-1.3333333,680.27355,274.07061)" clip-path="url(#clipPath16)"/>
    <path id="path17" d="m 0,0 v 0 c 0.466,-0.464 0.466,-1.662 0,-3.594 -0.31,-1.854 -0.776,-2.782 -1.398,-2.782 0,0 -0.485,0.619 -1.456,1.857 -0.97,1.236 -1.999,1.853 -3.087,1.853 -2.253,0 -3.845,-4.153 -4.777,-12.459 -0.932,-8.306 -1.787,-12.381 -2.563,-12.226 -1.01,0 -2.058,1.816 -3.145,5.447 -1.244,4.635 -3.38,8.228 -6.409,10.779 -0.156,-0.388 -0.389,-0.736 -0.699,-1.044 -0.544,-0.156 -1.883,0.366 -4.018,1.564 -2.136,1.198 -3.282,2.26 -3.438,3.187 -0.466,4.327 0.35,6.49 2.448,6.49 3.805,0.155 7.844,-3.901 12.116,-12.17 0.621,-1.699 1.514,-3.669 2.68,-5.91 0.466,3.94 1.087,7.881 1.863,11.823 C -10.64,0.154 -8.66,3.747 -5.941,3.594 -3.843,3.594 -1.863,2.396 0,0" style="fill:#FFFFFF;fill-opacity:1;fill-rule:nonzero;stroke:none" transform="matrix(1.3333333,0,0,-1.3333333,494.18675,352.92741)" clip-path="url(#clipPath18)"/>
    <path id="path19" d="M 0,0 C 3.58,1.734 6.171,8.266 4.739,12.075 4.378,11.947 3.953,11.897 3.668,11.682 -0.748,8.341 -4.267,9.349 -4.903,14.636 c -0.394,3.276 -0.187,7.019 1.148,9.996 3.373,7.517 7.547,14.715 11.372,22.054 0.522,1.001 0.886,2.075 1.323,3.115 C 8.67,49.945 8.4,50.09 8.131,50.235 7.769,49.93 7.314,49.682 7.06,49.312 0.178,39.312 -5.94,28.93 -8.543,17.143 -9.601,12.354 -9.963,7.319 -7.246,2.687 -5.43,-0.407 -2.827,-1.37 0,0" style="fill:#FFFFFF;fill-opacity:1;fill-rule:nonzero;stroke:none" transform="matrix(1.3333333,0,0,-1.3333333,515.63635,478.61555)" clip-path="url(#clipPath20)"/>
    <path id="path21" d="M 0,0 C 2.566,1.503 3.979,6.143 2.574,8.573 2.311,8.453 1.993,8.379 1.796,8.208 -1.269,5.545 -4.019,5.894 -4.946,9.394 c -0.574,2.168 -0.732,4.707 0.029,6.836 1.923,5.377 4.479,10.614 6.759,15.913 0.311,0.722 0.496,1.479 0.74,2.22 C 2.365,34.435 2.149,34.507 1.932,34.58 1.684,34.341 1.36,34.131 1.199,33.858 -3.173,26.481 -6.934,18.919 -7.914,10.74 -8.313,7.417 -8.163,3.993 -5.715,1.13 -4.079,-0.783 -2.026,-1.187 0,0" style="fill:#FFFFFF;fill-opacity:1;fill-rule:nonzero;stroke:none" transform="matrix(1.3333333,0,0,-1.3333333,551.87355,378.52555)" clip-path="url(#clipPath22)"/>
    <path id="path23" d="m 0,0 v 0 c 0.13,-1.434 -0.16,-3.184 -0.868,-5.248 -0.708,-2.065 -1.435,-3.297 -2.179,-3.696 -1.533,-0.36 -11.974,-4.796 -31.321,-13.307 -20.739,-9.193 -32.268,-14.56 -34.587,-16.102 -0.523,0.843 -0.439,2.38 0.253,4.609 0.693,2.23 1.574,3.614 2.642,4.154 C -26.163,-9.79 -4.143,0.073 0,0" style="fill:#FFFFFF;fill-opacity:1;fill-rule:nonzero;stroke:none" transform="matrix(1.3333333,0,0,-1.3333333,685.79741,227.68795)" clip-path="url(#clipPath24)"/>
    <path id="path25" d="m 0,0 v 0 c 0.13,-1.434 -0.16,-3.184 -0.868,-5.248 -0.708,-2.065 -1.435,-3.297 -2.179,-3.696 -1.533,-0.36 -11.974,-4.796 -31.321,-13.307 -20.739,-9.193 -32.268,-14.56 -34.587,-16.102 -0.523,0.843 -0.439,2.38 0.253,4.609 0.693,2.23 1.574,3.614 2.642,4.154 C -26.163,-9.79 -4.143,0.074 0,0" style="fill:#FFFFFF;fill-opacity:1;fill-rule:nonzero;stroke:none" transform="matrix(1.3333333,0,0,-1.3333333,632.02768,472.84808)" clip-path="url(#clipPath26)"/>
    <path id="path27" d="m 0,0 v 0 c -3.183,-1.493 -8.108,-2.478 -14.774,-2.957 -0.481,0 -0.781,0.12 -0.901,0.358 -0.12,0.359 0,0.658 0.36,0.898 4.323,1.851 9.909,4.42 16.756,7.706 -0.961,0.896 -3.964,1.523 -9.009,1.881 -4.804,0.359 -7.807,0.419 -9.009,0.18 -0.54,-0.12 -0.93,-0.12 -1.171,0 -0.24,0.119 -0.18,0.417 0.18,0.896 1.742,2.688 3.844,5.436 6.306,8.244 4.805,1.016 10.961,0.418 18.468,-1.791 1.802,-0.479 2.703,-1.524 2.703,-3.137 0,-1.732 -1.246,-4.033 -3.74,-6.901 C 3.678,2.509 1.621,0.717 0,0" style="fill:#FFFFFF;fill-opacity:1;fill-rule:nonzero;stroke:none" transform="matrix(1.3333333,0,0,-1.3333333,636.72141,316.76981)" clip-path="url(#clipPath28)"/>
    </g>
</svg>
